# xmcd
#
# Track frame offsets:
#	150
#	21913
#	45696
#	67584
#	89024
#	115872
#	140774
#	158650
#	185843
#	209411
#	212592
#
# Disc length: 3069 seconds
#
# Revision: 0
# Processed by: cddbd v1.5.2PL0 Copyright (c) Steve Scherf et al.
# Submitted via: audiograbber 1.83.01
#
DISCID=9e0bfb0b
DTITLE=Edgehill Avenue - Rambler
DYEAR=1900
DGENRE=
TTITLE0=Rambler
TTITLE1=With These Hands
TTITLE2=Just Another Day
TTITLE3=Don´t Come Round Here Anymore
TTITLE4=I´ll Be Leaving Now
TTITLE5=Just Don´t Care Anymore
TTITLE6=How You Really Feel
TTITLE7=Holding On
TTITLE8=Out Of Time
TTITLE9=Justified
TTITLE10=Justified (radio Edit)
EXTD=
EXTT0=
EXTT1=
EXTT2=
EXTT3=
EXTT4=
EXTT5=
EXTT6=
EXTT7=
EXTT8=
EXTT9=
EXTT10=
PLAYORDER=
